<svg width="20" height="14" viewBox="0 0 20 14" fill="none" xmlns="http://www.w3.org/2000/svg">
<path fill-rule="evenodd" clip-rule="evenodd" d="M18.8684 6.504C19.0883 6.8853 19.0351 7.3798 18.7087 7.7062L12.7087 13.7062C12.5087 13.8962 12.2587 13.9962 11.9987 13.9962C11.7387 13.9962 11.4887 13.8962 11.2887 13.7062C10.8987 13.3162 10.8987 12.6862 11.2887 12.2962L15.5887 7.9962H1.99878C1.44878 7.9962 0.998779 7.5462 0.998779 6.9962C0.998779 6.4462 1.44878 5.9962 1.99878 5.9962H15.5888L11.2987 1.70616C10.9087 1.31616 10.9087 0.686162 11.2987 0.296162C11.6887 -0.0938379 12.3187 -0.0938379 12.7087 0.296162L18.6614 6.2489C18.7436 6.3218 18.8137 6.408 18.8684 6.504Z" fill="white"/>
</svg>
