<svg width="26" height="20" viewBox="0 0 26 20" fill="none" xmlns="http://www.w3.org/2000/svg">
<path fill-rule="evenodd" clip-rule="evenodd" d="M24.4293 3.68936C24.5054 3.68108 24.5838 3.68478 24.6623 3.70195C24.7623 3.72382 24.8538 3.76446 24.9334 3.81955C25.1288 3.95296 25.2586 4.17611 25.2623 4.42838C25.2638 4.48122 25.2596 4.53512 25.2498 4.58945L23.4748 13.4644C23.3998 13.8144 23.0998 14.0644 22.7373 14.0644H7.73729C7.37479 14.0644 7.07479 13.8144 6.99979 13.4644L4.61979 1.56448H1.4873C1.0748 1.56448 0.737305 1.22698 0.737305 0.814484C0.737305 0.401984 1.0748 0.0644838 1.4873 0.0644838H5.16672C5.54853 0.0254464 5.89293 0.290246 5.97479 0.664446L6.5785 3.68936H24.4293ZM9.66239 5.18936H6.87787L8.34979 12.5644H11.1374L9.66239 5.18936ZM10.9374 5.18936L12.4124 12.5644H14.6124V5.18936H10.9374ZM15.8624 5.18936V12.5644H18.05L19.525 5.18936H15.8624ZM20.8 5.18936L19.325 12.5644H22.1248L23.5954 5.18936H20.8ZM19.9248 15.3144H23.3623C23.7748 15.3144 24.1123 15.6519 24.1123 16.0644C24.1123 16.4769 23.7748 16.8144 23.3623 16.8144H22.09C22.1851 17.0673 22.2373 17.3412 22.2373 17.6269C22.2373 18.9019 21.1998 19.9394 19.9248 19.9394C18.6498 19.9394 17.6123 18.9019 17.6123 17.6269C17.6123 17.3412 17.6644 17.0673 17.7596 16.8144H12.715C12.8101 17.0673 12.8623 17.3412 12.8623 17.6269C12.8623 18.9019 11.8248 19.9394 10.5498 19.9394C9.2748 19.9394 8.23731 18.9019 8.23731 17.6269C8.23731 17.3412 8.28943 17.0673 8.38465 16.8144H7.1123C6.6998 16.8144 6.3623 16.4769 6.3623 16.0644C6.3623 15.6519 6.6998 15.3144 7.1123 15.3144H10.5498H19.9248ZM10.5498 16.8144C10.0998 16.8144 9.7373 17.1769 9.7373 17.6269C9.7373 18.0769 10.0998 18.4394 10.5498 18.4394C10.9998 18.4394 11.3623 18.0769 11.3623 17.6269C11.3623 17.1769 10.9998 16.8144 10.5498 16.8144ZM19.9248 16.8144C19.4748 16.8144 19.1123 17.1769 19.1123 17.6269C19.1123 18.0769 19.4748 18.4394 19.9248 18.4394C20.3748 18.4394 20.7373 18.0769 20.7373 17.6269C20.7373 17.1769 20.3748 16.8144 19.9248 16.8144Z" fill="#F0F0F0"/>
</svg>
